<svg width="60" height="60" viewBox="0 0 60 60" fill="none" xmlns="http://www.w3.org/2000/svg">
<path d="M55.648 30C58.0516 30 60.0324 28.0415 59.6849 25.6632C59.043 21.2698 57.4309 17.0547 54.9441 13.3329C51.6476 8.39942 46.9623 4.55424 41.4805 2.28361C35.9987 0.012985 29.9667 -0.581115 24.1473 0.576442C18.3279 1.734 12.9824 4.59122 8.7868 8.7868C4.59122 12.9824 1.734 18.3279 0.576442 24.1473C-0.581115 29.9667 0.0129851 35.9987 2.28361 41.4805C4.55424 46.9623 8.39942 51.6476 13.3329 54.9441C17.0547 57.4309 21.2698 59.043 25.6632 59.6849C28.0415 60.0324 30 58.0516 30 55.648V55.648C30 53.2445 28.0317 51.3407 25.6782 50.8529C23.0091 50.2997 20.4574 49.2364 18.1685 47.707C14.6664 45.367 11.9368 42.041 10.325 38.1497C8.71315 34.2583 8.29141 29.9764 9.11313 25.8453C9.93484 21.7143 11.9631 17.9197 14.9414 14.9414C17.9197 11.9631 21.7143 9.93484 25.8453 9.11313C29.9764 8.29141 34.2583 8.71315 38.1497 10.325C42.041 11.9368 45.367 14.6664 47.707 18.1685C49.2364 20.4574 50.2997 23.0091 50.8529 25.6782C51.3407 28.0317 53.2445 30 55.648 30V30Z" fill="#CB1260"/>
</svg>
